<svg xmlns="http://www.w3.org/2000/svg" viewBox="0 0 100 190">
  <!-- Pin body -->
  <path d="M50 5 C25 5 8 22 8 45 C8 78 50 185 50 185 C50 185 92 78 92 45 C92 22 75 5 50 5 Z" fill="#1a3a1a"/>
  <!-- Circle background -->
  <circle cx="50" cy="45" r="26" fill="#FAF6ED"/>
  <!-- Left leaf -->
  <path d="M50 52 C46 46 37 42 32 35 C38 30 50 40 50 46" fill="#C8860A"/>
  <!-- Right leaf -->
  <path d="M50 46 C54 40 63 36 68 29 C62 24 50 34 50 40" fill="#d4a020"/>
  <!-- Stem -->
  <rect x="48" y="52" width="4" height="12" rx="2" fill="#1a3a1a"/>
</svg>
